<svg width="12" height="18" viewBox="0 0 12 18" fill="none" xmlns="http://www.w3.org/2000/svg">
<path d="M11.7148 4.33484C11.6528 4.10249 11.5269 3.85492 11.4338 3.63816C10.3193 0.959852 7.88428 0 5.91809 0C3.28599 0 0.387034 1.76494 0 5.40289V6.14615C0 6.17716 0.0106902 6.4558 0.0258752 6.59517C0.242838 8.32893 1.6109 10.1715 2.63263 11.9053C3.73186 13.7628 4.87247 15.5901 6.00252 17.4167C6.69932 16.2247 7.39362 15.0171 8.07455 13.856C8.26013 13.5152 8.47556 13.1747 8.66134 12.8494C8.78517 12.6329 9.02173 12.4163 9.12981 12.2148C10.229 10.2024 11.9983 8.17433 11.9983 6.17712V5.35665C11.9983 5.14013 11.7299 4.38153 11.7148 4.33484ZM5.96627 8.06597C5.19257 8.06597 4.34569 7.6791 3.92768 6.61068C3.8654 6.44061 3.87042 6.09978 3.87042 6.06856V5.58863C3.87042 4.2266 5.02691 3.60722 6.03301 3.60722C7.27161 3.60722 8.22956 4.59817 8.22956 5.83678C8.22956 7.07534 7.20488 8.06597 5.96627 8.06597Z" fill="white"/>
</svg>
