<svg width="22" height="22" viewBox="0 0 22 22" fill="none" xmlns="http://www.w3.org/2000/svg">
<path d="M10.6196 1.17082C10.7393 0.802296 11.2607 0.802296 11.3804 1.17082L13.6044 8.0154C13.6579 8.18021 13.8115 8.2918 13.9848 8.2918H21.1816C21.5691 8.2918 21.7302 8.78764 21.4167 9.0154L15.5944 13.2456C15.4542 13.3474 15.3955 13.528 15.4491 13.6928L17.673 20.5374C17.7927 20.9059 17.3709 21.2124 17.0575 20.9846L11.2351 16.7544C11.0949 16.6526 10.9051 16.6526 10.7649 16.7544L4.94254 20.9846C4.62905 21.2124 4.20726 20.9059 4.327 20.5374L6.55094 13.6928C6.60449 13.528 6.54583 13.3474 6.40563 13.2456L0.583282 9.0154C0.269796 8.78764 0.430906 8.2918 0.818395 8.2918H8.01521C8.18851 8.2918 8.34209 8.18021 8.39564 8.0154L10.6196 1.17082Z" fill="#F6A326"/>
</svg>
