<svg width="14" height="15" viewBox="0 0 14 15" fill="none" xmlns="http://www.w3.org/2000/svg">
<path d="M12.4142 10.4402C11.5081 9.66519 10.5884 9.19572 9.69341 9.96958L9.15897 10.4373C8.76794 10.7768 8.0409 12.3632 5.22994 9.12957C2.41956 5.90007 4.09198 5.39723 4.48359 5.06064L5.02096 4.59234C5.91132 3.81672 5.57531 2.84032 4.93316 1.83523L4.54564 1.22644C3.90056 0.223698 3.19811 -0.434847 2.30542 0.339602L1.82307 0.761071C1.42853 1.04849 0.325683 1.98275 0.0581671 3.7576C-0.263788 5.88719 0.751835 8.32585 3.07869 11.0016C5.40263 13.6785 7.67797 15.0231 9.83332 14.9997C11.6246 14.9804 12.7063 14.0192 13.0447 13.6697L13.5288 13.2477C14.4191 12.4738 13.866 11.6859 12.9592 10.9091L12.4142 10.4402Z" fill="white"/>
</svg>
